<mxfile host="app.diagrams.net" agent="Mozilla/5.0 (Windows NT 10.0; Win64; x64) AppleWebKit/537.36 (KHTML, like Gecko) Chrome/128.0.0.0 Safari/537.36 OPR/114.0.0.0" version="24.9.1">
  <diagram name="Page-1" id="y1c4eyKBUa124X-FBVNv">
    <mxGraphModel dx="1229" dy="773" grid="1" gridSize="10" guides="1" tooltips="1" connect="1" arrows="1" fold="1" page="1" pageScale="1" pageWidth="850" pageHeight="1100" math="0" shadow="0">
      <root>
        <mxCell id="0" />
        <mxCell id="1" parent="0" />
        <mxCell id="dvXd4WphclNY3FS19eXK-38" value="&amp;lt;&amp;lt;Execution environment&amp;gt;&amp;gt;&lt;div&gt;&lt;div&gt;Servidor Virtual 1&lt;/div&gt;&lt;/div&gt;" style="verticalAlign=top;align=center;spacingTop=8;spacingLeft=2;spacingRight=12;shape=cube;size=10;direction=south;fontStyle=0;html=1;whiteSpace=wrap;" vertex="1" parent="1">
          <mxGeometry x="583" y="1550" width="180" height="290" as="geometry" />
        </mxCell>
        <mxCell id="dvXd4WphclNY3FS19eXK-39" value="«Servidor Virtual»&lt;br&gt;&lt;b&gt;Servicios y repositorios&lt;/b&gt;" style="html=1;dropTarget=0;whiteSpace=wrap;" vertex="1" parent="1">
          <mxGeometry x="598" y="1600" width="150" height="60" as="geometry" />
        </mxCell>
        <mxCell id="dvXd4WphclNY3FS19eXK-40" value="" style="shape=module;jettyWidth=8;jettyHeight=4;" vertex="1" parent="dvXd4WphclNY3FS19eXK-39">
          <mxGeometry x="1" width="20" height="20" relative="1" as="geometry">
            <mxPoint x="-27" y="7" as="offset" />
          </mxGeometry>
        </mxCell>
        <mxCell id="dvXd4WphclNY3FS19eXK-41" value="&amp;lt;&amp;lt;Execution environment&amp;gt;&amp;gt;&lt;div&gt;&lt;div&gt;Servidor Virtual 2&lt;/div&gt;&lt;/div&gt;" style="verticalAlign=top;align=center;spacingTop=8;spacingLeft=2;spacingRight=12;shape=cube;size=10;direction=south;fontStyle=0;html=1;whiteSpace=wrap;" vertex="1" parent="1">
          <mxGeometry x="903" y="1550" width="180" height="290" as="geometry" />
        </mxCell>
        <mxCell id="dvXd4WphclNY3FS19eXK-42" value="«BDD Distribuida»&lt;br&gt;&lt;b&gt;Serivicios y repositorios&lt;/b&gt;" style="html=1;dropTarget=0;whiteSpace=wrap;" vertex="1" parent="1">
          <mxGeometry x="913" y="1600" width="150" height="60" as="geometry" />
        </mxCell>
        <mxCell id="dvXd4WphclNY3FS19eXK-43" value="" style="shape=module;jettyWidth=8;jettyHeight=4;" vertex="1" parent="dvXd4WphclNY3FS19eXK-42">
          <mxGeometry x="1" width="20" height="20" relative="1" as="geometry">
            <mxPoint x="-27" y="7" as="offset" />
          </mxGeometry>
        </mxCell>
        <mxCell id="dvXd4WphclNY3FS19eXK-44" value="&amp;lt;&amp;lt;Execution environment&amp;gt;&amp;gt;&lt;div&gt;&lt;div&gt;Servidor Aeropuerto&lt;/div&gt;&lt;/div&gt;" style="verticalAlign=top;align=center;spacingTop=8;spacingLeft=2;spacingRight=12;shape=cube;size=10;direction=south;fontStyle=0;html=1;whiteSpace=wrap;" vertex="1" parent="1">
          <mxGeometry x="330" y="1540" width="180" height="120" as="geometry" />
        </mxCell>
        <mxCell id="dvXd4WphclNY3FS19eXK-45" value="«DB aeropuerto»&lt;br&gt;&lt;b&gt;Sistemadel aeropurto&lt;/b&gt;" style="html=1;dropTarget=0;whiteSpace=wrap;" vertex="1" parent="1">
          <mxGeometry x="345" y="1590" width="150" height="60" as="geometry" />
        </mxCell>
        <mxCell id="dvXd4WphclNY3FS19eXK-46" value="" style="shape=module;jettyWidth=8;jettyHeight=4;" vertex="1" parent="dvXd4WphclNY3FS19eXK-45">
          <mxGeometry x="1" width="20" height="20" relative="1" as="geometry">
            <mxPoint x="-27" y="7" as="offset" />
          </mxGeometry>
        </mxCell>
        <mxCell id="dvXd4WphclNY3FS19eXK-47" style="edgeStyle=orthogonalEdgeStyle;rounded=0;orthogonalLoop=1;jettySize=auto;html=1;entryX=0.494;entryY=0.993;entryDx=0;entryDy=0;entryPerimeter=0;endArrow=none;endFill=0;" edge="1" parent="1" source="dvXd4WphclNY3FS19eXK-38" target="dvXd4WphclNY3FS19eXK-41">
          <mxGeometry relative="1" as="geometry" />
        </mxCell>
        <mxCell id="dvXd4WphclNY3FS19eXK-48" value="Cluster&lt;div&gt;Data Lake&lt;/div&gt;" style="shape=umlFrame;whiteSpace=wrap;html=1;pointerEvents=0;width=80;height=30;" vertex="1" parent="1">
          <mxGeometry x="573" y="1510" width="567.5" height="370" as="geometry" />
        </mxCell>
        <mxCell id="dvXd4WphclNY3FS19eXK-64" value="&amp;lt;&amp;lt;Device&amp;gt;&amp;gt;&lt;div&gt;&lt;br&gt;&lt;/div&gt;&lt;div&gt;Estación de trabajo&lt;/div&gt;&lt;div&gt;&lt;br&gt;&lt;/div&gt;" style="verticalAlign=top;align=center;spacingTop=8;spacingLeft=2;spacingRight=12;shape=cube;size=10;direction=south;fontStyle=0;html=1;whiteSpace=wrap;" vertex="1" parent="1">
          <mxGeometry x="15" y="1130" width="180" height="140" as="geometry" />
        </mxCell>
        <mxCell id="dvXd4WphclNY3FS19eXK-65" value="Aplicaciones" style="shape=umlFrame;whiteSpace=wrap;html=1;pointerEvents=0;width=110;height=30;" vertex="1" parent="1">
          <mxGeometry x="340" y="1110" width="430" height="340" as="geometry" />
        </mxCell>
        <mxCell id="dvXd4WphclNY3FS19eXK-66" value="&amp;lt;&amp;lt;Device&amp;gt;&amp;gt;&lt;div&gt;&lt;br&gt;&lt;/div&gt;&lt;div&gt;Smart Phone&lt;/div&gt;&lt;div&gt;&lt;br&gt;&lt;/div&gt;" style="verticalAlign=top;align=center;spacingTop=8;spacingLeft=2;spacingRight=12;shape=cube;size=10;direction=south;fontStyle=0;html=1;whiteSpace=wrap;" vertex="1" parent="1">
          <mxGeometry x="10" y="1300" width="180" height="130" as="geometry" />
        </mxCell>
        <mxCell id="dvXd4WphclNY3FS19eXK-67" value="«Aplicacion»&lt;br&gt;&lt;b&gt;Sitio web&lt;/b&gt;" style="html=1;dropTarget=0;whiteSpace=wrap;" vertex="1" parent="1">
          <mxGeometry x="25" y="1200" width="150" height="50" as="geometry" />
        </mxCell>
        <mxCell id="dvXd4WphclNY3FS19eXK-68" value="" style="shape=module;jettyWidth=8;jettyHeight=4;" vertex="1" parent="dvXd4WphclNY3FS19eXK-67">
          <mxGeometry x="1" width="20" height="20" relative="1" as="geometry">
            <mxPoint x="-27" y="7" as="offset" />
          </mxGeometry>
        </mxCell>
        <mxCell id="dvXd4WphclNY3FS19eXK-69" value="«Aplicacion»&lt;br&gt;&lt;b&gt;App Nativa&lt;/b&gt;" style="html=1;dropTarget=0;whiteSpace=wrap;" vertex="1" parent="1">
          <mxGeometry x="20" y="1365" width="150" height="50" as="geometry" />
        </mxCell>
        <mxCell id="dvXd4WphclNY3FS19eXK-70" value="" style="shape=module;jettyWidth=8;jettyHeight=4;" vertex="1" parent="dvXd4WphclNY3FS19eXK-69">
          <mxGeometry x="1" width="20" height="20" relative="1" as="geometry">
            <mxPoint x="-27" y="7" as="offset" />
          </mxGeometry>
        </mxCell>
        <mxCell id="dvXd4WphclNY3FS19eXK-71" style="edgeStyle=orthogonalEdgeStyle;rounded=0;orthogonalLoop=1;jettySize=auto;html=1;entryX=0.009;entryY=0.145;entryDx=0;entryDy=0;entryPerimeter=0;endArrow=none;endFill=0;" edge="1" parent="1" source="dvXd4WphclNY3FS19eXK-64" target="dvXd4WphclNY3FS19eXK-65">
          <mxGeometry relative="1" as="geometry" />
        </mxCell>
        <mxCell id="dvXd4WphclNY3FS19eXK-72" value="HTTPS" style="edgeLabel;html=1;align=center;verticalAlign=middle;resizable=0;points=[];" vertex="1" connectable="0" parent="dvXd4WphclNY3FS19eXK-71">
          <mxGeometry x="-0.0575" y="2" relative="1" as="geometry">
            <mxPoint as="offset" />
          </mxGeometry>
        </mxCell>
        <mxCell id="dvXd4WphclNY3FS19eXK-73" style="edgeStyle=orthogonalEdgeStyle;rounded=0;orthogonalLoop=1;jettySize=auto;html=1;entryX=0.005;entryY=0.404;entryDx=0;entryDy=0;entryPerimeter=0;endArrow=none;endFill=0;" edge="1" parent="1" source="dvXd4WphclNY3FS19eXK-66" target="dvXd4WphclNY3FS19eXK-65">
          <mxGeometry relative="1" as="geometry" />
        </mxCell>
        <mxCell id="dvXd4WphclNY3FS19eXK-74" value="HTTPS" style="edgeLabel;html=1;align=center;verticalAlign=middle;resizable=0;points=[];" vertex="1" connectable="0" parent="dvXd4WphclNY3FS19eXK-73">
          <mxGeometry x="-0.0868" y="3" relative="1" as="geometry">
            <mxPoint x="-1" as="offset" />
          </mxGeometry>
        </mxCell>
        <mxCell id="dvXd4WphclNY3FS19eXK-75" style="edgeStyle=orthogonalEdgeStyle;rounded=0;orthogonalLoop=1;jettySize=auto;html=1;entryX=0.003;entryY=0.213;entryDx=0;entryDy=0;entryPerimeter=0;endArrow=none;endFill=0;" edge="1" parent="1" source="dvXd4WphclNY3FS19eXK-44" target="dvXd4WphclNY3FS19eXK-48">
          <mxGeometry relative="1" as="geometry" />
        </mxCell>
        <mxCell id="dvXd4WphclNY3FS19eXK-76" value="TCP" style="edgeLabel;html=1;align=center;verticalAlign=middle;resizable=0;points=[];" vertex="1" connectable="0" parent="dvXd4WphclNY3FS19eXK-75">
          <mxGeometry x="-0.2851" y="1" relative="1" as="geometry">
            <mxPoint as="offset" />
          </mxGeometry>
        </mxCell>
        <mxCell id="dvXd4WphclNY3FS19eXK-82" style="edgeStyle=orthogonalEdgeStyle;rounded=0;orthogonalLoop=1;jettySize=auto;html=1;entryX=0.179;entryY=1.001;entryDx=0;entryDy=0;entryPerimeter=0;endArrow=none;endFill=0;" edge="1" parent="1" source="dvXd4WphclNY3FS19eXK-44" target="dvXd4WphclNY3FS19eXK-65">
          <mxGeometry relative="1" as="geometry" />
        </mxCell>
        <mxCell id="dvXd4WphclNY3FS19eXK-90" value="TCP" style="edgeLabel;html=1;align=center;verticalAlign=middle;resizable=0;points=[];" vertex="1" connectable="0" parent="dvXd4WphclNY3FS19eXK-82">
          <mxGeometry x="0.1592" y="5" relative="1" as="geometry">
            <mxPoint as="offset" />
          </mxGeometry>
        </mxCell>
        <mxCell id="dvXd4WphclNY3FS19eXK-83" value="&amp;lt;&amp;lt;Execution environment&amp;gt;&amp;gt;&lt;div&gt;Sistema de reserva&lt;/div&gt;&lt;div&gt;&lt;br&gt;&lt;/div&gt;" style="verticalAlign=top;align=center;spacingTop=8;spacingLeft=2;spacingRight=12;shape=cube;size=10;direction=south;fontStyle=0;html=1;whiteSpace=wrap;" vertex="1" parent="1">
          <mxGeometry x="470" y="1120" width="195" height="320" as="geometry" />
        </mxCell>
        <mxCell id="dvXd4WphclNY3FS19eXK-84" value="«Aplicacion»&lt;br&gt;&lt;b&gt;Automatisacion y generacion de ticket&lt;/b&gt;" style="html=1;dropTarget=0;whiteSpace=wrap;" vertex="1" parent="1">
          <mxGeometry x="487.5" y="1200" width="160" height="60" as="geometry" />
        </mxCell>
        <mxCell id="dvXd4WphclNY3FS19eXK-85" value="" style="shape=module;jettyWidth=8;jettyHeight=4;" vertex="1" parent="dvXd4WphclNY3FS19eXK-84">
          <mxGeometry x="1" width="20" height="20" relative="1" as="geometry">
            <mxPoint x="-27" y="7" as="offset" />
          </mxGeometry>
        </mxCell>
        <mxCell id="dvXd4WphclNY3FS19eXK-86" value="«Aplicacion»&lt;br&gt;&lt;b&gt;eservascon experiencia&amp;nbsp; al cliente optimizada&lt;/b&gt;" style="html=1;dropTarget=0;whiteSpace=wrap;" vertex="1" parent="1">
          <mxGeometry x="487.5" y="1280" width="160" height="60" as="geometry" />
        </mxCell>
        <mxCell id="dvXd4WphclNY3FS19eXK-87" value="" style="shape=module;jettyWidth=8;jettyHeight=4;" vertex="1" parent="dvXd4WphclNY3FS19eXK-86">
          <mxGeometry x="1" width="20" height="20" relative="1" as="geometry">
            <mxPoint x="-27" y="7" as="offset" />
          </mxGeometry>
        </mxCell>
        <mxCell id="dvXd4WphclNY3FS19eXK-91" value="«Aplicacion»&lt;br&gt;&lt;b&gt;Reservas externas&lt;/b&gt;" style="html=1;dropTarget=0;whiteSpace=wrap;" vertex="1" parent="1">
          <mxGeometry x="590" y="1760" width="160" height="60" as="geometry" />
        </mxCell>
        <mxCell id="dvXd4WphclNY3FS19eXK-92" value="" style="shape=module;jettyWidth=8;jettyHeight=4;" vertex="1" parent="dvXd4WphclNY3FS19eXK-91">
          <mxGeometry x="1" width="20" height="20" relative="1" as="geometry">
            <mxPoint x="-27" y="7" as="offset" />
          </mxGeometry>
        </mxCell>
        <mxCell id="dvXd4WphclNY3FS19eXK-88" value="«Aplicacion»&lt;br&gt;&lt;b&gt;Google ads&lt;/b&gt;" style="html=1;dropTarget=0;whiteSpace=wrap;" vertex="1" parent="1">
          <mxGeometry x="487.5" y="1360" width="160" height="60" as="geometry" />
        </mxCell>
        <mxCell id="dvXd4WphclNY3FS19eXK-89" value="" style="shape=module;jettyWidth=8;jettyHeight=4;" vertex="1" parent="dvXd4WphclNY3FS19eXK-88">
          <mxGeometry x="1" width="20" height="20" relative="1" as="geometry">
            <mxPoint x="-27" y="7" as="offset" />
          </mxGeometry>
        </mxCell>
        <mxCell id="dvXd4WphclNY3FS19eXK-93" value="«Aplicacion»&lt;br&gt;&lt;b&gt;Consulta vuelos disponibles&lt;/b&gt;" style="html=1;dropTarget=0;whiteSpace=wrap;" vertex="1" parent="1">
          <mxGeometry x="590" y="1680" width="160" height="60" as="geometry" />
        </mxCell>
        <mxCell id="dvXd4WphclNY3FS19eXK-94" value="" style="shape=module;jettyWidth=8;jettyHeight=4;" vertex="1" parent="dvXd4WphclNY3FS19eXK-93">
          <mxGeometry x="1" width="20" height="20" relative="1" as="geometry">
            <mxPoint x="-27" y="7" as="offset" />
          </mxGeometry>
        </mxCell>
        <mxCell id="dvXd4WphclNY3FS19eXK-95" value="«Aplicacion»&lt;div&gt;&lt;b&gt;&amp;nbsp;repositorio de información&lt;/b&gt;&lt;br&gt;&lt;/div&gt;" style="html=1;dropTarget=0;whiteSpace=wrap;" vertex="1" parent="1">
          <mxGeometry x="487.5" y="1365" width="160" height="60" as="geometry" />
        </mxCell>
        <mxCell id="dvXd4WphclNY3FS19eXK-96" value="" style="shape=module;jettyWidth=8;jettyHeight=4;" vertex="1" parent="dvXd4WphclNY3FS19eXK-95">
          <mxGeometry x="1" width="20" height="20" relative="1" as="geometry">
            <mxPoint x="-27" y="7" as="offset" />
          </mxGeometry>
        </mxCell>
        <mxCell id="dvXd4WphclNY3FS19eXK-97" value="«Aplicacion»&lt;br&gt;&lt;b&gt;Reservas externas&lt;/b&gt;" style="html=1;dropTarget=0;whiteSpace=wrap;" vertex="1" parent="1">
          <mxGeometry x="913" y="1760" width="160" height="60" as="geometry" />
        </mxCell>
        <mxCell id="dvXd4WphclNY3FS19eXK-98" value="" style="shape=module;jettyWidth=8;jettyHeight=4;" vertex="1" parent="dvXd4WphclNY3FS19eXK-97">
          <mxGeometry x="1" width="20" height="20" relative="1" as="geometry">
            <mxPoint x="-27" y="7" as="offset" />
          </mxGeometry>
        </mxCell>
        <mxCell id="dvXd4WphclNY3FS19eXK-99" value="«Aplicacion»&lt;br&gt;&lt;b&gt;Consulta vuelos disponibles&lt;/b&gt;" style="html=1;dropTarget=0;whiteSpace=wrap;" vertex="1" parent="1">
          <mxGeometry x="913" y="1680" width="160" height="60" as="geometry" />
        </mxCell>
        <mxCell id="dvXd4WphclNY3FS19eXK-100" value="" style="shape=module;jettyWidth=8;jettyHeight=4;" vertex="1" parent="dvXd4WphclNY3FS19eXK-99">
          <mxGeometry x="1" width="20" height="20" relative="1" as="geometry">
            <mxPoint x="-27" y="7" as="offset" />
          </mxGeometry>
        </mxCell>
        <mxCell id="dvXd4WphclNY3FS19eXK-101" value="User" style="shape=umlActor;verticalLabelPosition=bottom;verticalAlign=top;html=1;outlineConnect=0;" vertex="1" parent="1">
          <mxGeometry x="50" y="60" width="30" height="60" as="geometry" />
        </mxCell>
        <mxCell id="dvXd4WphclNY3FS19eXK-102" value="Pantalla de busqueda" style="rounded=0;whiteSpace=wrap;html=1;" vertex="1" parent="1">
          <mxGeometry x="160" y="60" width="120" height="60" as="geometry" />
        </mxCell>
        <mxCell id="dvXd4WphclNY3FS19eXK-103" value="Back end" style="rounded=0;whiteSpace=wrap;html=1;" vertex="1" parent="1">
          <mxGeometry x="360" y="60" width="120" height="60" as="geometry" />
        </mxCell>
        <mxCell id="dvXd4WphclNY3FS19eXK-104" value="Servidor aeropuerto" style="rounded=0;whiteSpace=wrap;html=1;" vertex="1" parent="1">
          <mxGeometry x="560" y="60" width="120" height="60" as="geometry" />
        </mxCell>
        <mxCell id="dvXd4WphclNY3FS19eXK-105" value="Servidores virtuales" style="rounded=0;whiteSpace=wrap;html=1;" vertex="1" parent="1">
          <mxGeometry x="760" y="60" width="120" height="60" as="geometry" />
        </mxCell>
        <mxCell id="dvXd4WphclNY3FS19eXK-106" value="" style="html=1;verticalAlign=bottom;endArrow=none;dashed=1;endSize=8;curved=0;rounded=0;endFill=0;" edge="1" parent="1">
          <mxGeometry relative="1" as="geometry">
            <mxPoint x="65" y="150" as="sourcePoint" />
            <mxPoint x="65" y="240" as="targetPoint" />
          </mxGeometry>
        </mxCell>
        <mxCell id="dvXd4WphclNY3FS19eXK-107" value="" style="html=1;points=[[0,0,0,0,5],[0,1,0,0,-5],[1,0,0,0,5],[1,1,0,0,-5]];perimeter=orthogonalPerimeter;outlineConnect=0;targetShapes=umlLifeline;portConstraint=eastwest;newEdgeStyle={&quot;curved&quot;:0,&quot;rounded&quot;:0};" vertex="1" parent="1">
          <mxGeometry x="60" y="240" width="10" height="560" as="geometry" />
        </mxCell>
        <mxCell id="dvXd4WphclNY3FS19eXK-108" value="" style="html=1;verticalAlign=bottom;endArrow=none;dashed=1;endSize=8;curved=0;rounded=0;endFill=0;" edge="1" parent="1">
          <mxGeometry relative="1" as="geometry">
            <mxPoint x="220" y="150" as="sourcePoint" />
            <mxPoint x="220" y="240" as="targetPoint" />
          </mxGeometry>
        </mxCell>
        <mxCell id="dvXd4WphclNY3FS19eXK-109" value="" style="html=1;points=[[0,0,0,0,5],[0,1,0,0,-5],[1,0,0,0,5],[1,1,0,0,-5]];perimeter=orthogonalPerimeter;outlineConnect=0;targetShapes=umlLifeline;portConstraint=eastwest;newEdgeStyle={&quot;curved&quot;:0,&quot;rounded&quot;:0};" vertex="1" parent="1">
          <mxGeometry x="215" y="240" width="10" height="140" as="geometry" />
        </mxCell>
        <mxCell id="dvXd4WphclNY3FS19eXK-110" value="" style="html=1;verticalAlign=bottom;endArrow=none;dashed=1;endSize=8;curved=0;rounded=0;endFill=0;" edge="1" parent="1">
          <mxGeometry relative="1" as="geometry">
            <mxPoint x="420" y="150" as="sourcePoint" />
            <mxPoint x="420" y="240" as="targetPoint" />
          </mxGeometry>
        </mxCell>
        <mxCell id="dvXd4WphclNY3FS19eXK-111" value="" style="html=1;points=[[0,0,0,0,5],[0,1,0,0,-5],[1,0,0,0,5],[1,1,0,0,-5]];perimeter=orthogonalPerimeter;outlineConnect=0;targetShapes=umlLifeline;portConstraint=eastwest;newEdgeStyle={&quot;curved&quot;:0,&quot;rounded&quot;:0};" vertex="1" parent="1">
          <mxGeometry x="420" y="430" width="10" height="160" as="geometry" />
        </mxCell>
        <mxCell id="dvXd4WphclNY3FS19eXK-112" value="" style="html=1;verticalAlign=bottom;endArrow=none;dashed=1;endSize=8;curved=0;rounded=0;endFill=0;" edge="1" parent="1" target="dvXd4WphclNY3FS19eXK-113">
          <mxGeometry relative="1" as="geometry">
            <mxPoint x="620" y="150" as="sourcePoint" />
            <mxPoint x="620" y="240" as="targetPoint" />
          </mxGeometry>
        </mxCell>
        <mxCell id="dvXd4WphclNY3FS19eXK-113" value="" style="html=1;points=[[0,0,0,0,5],[0,1,0,0,-5],[1,0,0,0,5],[1,1,0,0,-5]];perimeter=orthogonalPerimeter;outlineConnect=0;targetShapes=umlLifeline;portConstraint=eastwest;newEdgeStyle={&quot;curved&quot;:0,&quot;rounded&quot;:0};" vertex="1" parent="1">
          <mxGeometry x="615" y="350" width="10" height="30" as="geometry" />
        </mxCell>
        <mxCell id="dvXd4WphclNY3FS19eXK-114" value="" style="html=1;verticalAlign=bottom;endArrow=none;dashed=1;endSize=8;curved=0;rounded=0;endFill=0;entryX=0.604;entryY=-0.064;entryDx=0;entryDy=0;entryPerimeter=0;" edge="1" parent="1" target="dvXd4WphclNY3FS19eXK-115">
          <mxGeometry relative="1" as="geometry">
            <mxPoint x="820" y="150" as="sourcePoint" />
            <mxPoint x="820" y="240" as="targetPoint" />
          </mxGeometry>
        </mxCell>
        <mxCell id="dvXd4WphclNY3FS19eXK-115" value="" style="html=1;points=[[0,0,0,0,5],[0,1,0,0,-5],[1,0,0,0,5],[1,1,0,0,-5]];perimeter=orthogonalPerimeter;outlineConnect=0;targetShapes=umlLifeline;portConstraint=eastwest;newEdgeStyle={&quot;curved&quot;:0,&quot;rounded&quot;:0};" vertex="1" parent="1">
          <mxGeometry x="815" y="560" width="10" height="90" as="geometry" />
        </mxCell>
        <mxCell id="dvXd4WphclNY3FS19eXK-116" value="Barajar (1)" style="endArrow=block;endFill=1;html=1;edgeStyle=orthogonalEdgeStyle;align=left;verticalAlign=top;rounded=0;" edge="1" parent="1">
          <mxGeometry x="-1" relative="1" as="geometry">
            <mxPoint x="70" y="240" as="sourcePoint" />
            <mxPoint x="210" y="240" as="targetPoint" />
            <mxPoint as="offset" />
          </mxGeometry>
        </mxCell>
        <mxCell id="dvXd4WphclNY3FS19eXK-117" value="Repartir 20 cartas" style="endArrow=block;endFill=1;html=1;edgeStyle=orthogonalEdgeStyle;align=left;verticalAlign=top;rounded=0;" edge="1" parent="1">
          <mxGeometry x="-1" relative="1" as="geometry">
            <mxPoint x="70" y="270" as="sourcePoint" />
            <mxPoint x="210" y="270" as="targetPoint" />
            <mxPoint as="offset" />
          </mxGeometry>
        </mxCell>
        <mxCell id="dvXd4WphclNY3FS19eXK-118" value="Mazo" style="html=1;verticalAlign=bottom;endArrow=open;dashed=1;endSize=8;curved=0;rounded=0;" edge="1" parent="1">
          <mxGeometry relative="1" as="geometry">
            <mxPoint x="210" y="319" as="sourcePoint" />
            <mxPoint x="70" y="318.95" as="targetPoint" />
          </mxGeometry>
        </mxCell>
        <mxCell id="dvXd4WphclNY3FS19eXK-119" value="frame" style="shape=umlFrame;whiteSpace=wrap;html=1;pointerEvents=0;" vertex="1" parent="1">
          <mxGeometry x="210" y="330" width="470" height="70" as="geometry" />
        </mxCell>
        <mxCell id="dvXd4WphclNY3FS19eXK-120" value="Ronda=true" style="text;html=1;align=center;verticalAlign=middle;resizable=0;points=[];autosize=1;strokeColor=none;fillColor=none;" vertex="1" parent="1">
          <mxGeometry x="270" y="330" width="90" height="30" as="geometry" />
        </mxCell>
        <mxCell id="dvXd4WphclNY3FS19eXK-121" value="" style="endArrow=block;endFill=1;html=1;edgeStyle=orthogonalEdgeStyle;align=left;verticalAlign=top;rounded=0;entryX=0;entryY=1;entryDx=0;entryDy=-5;entryPerimeter=0;" edge="1" parent="1" target="dvXd4WphclNY3FS19eXK-113">
          <mxGeometry x="-1" relative="1" as="geometry">
            <mxPoint x="225" y="370" as="sourcePoint" />
            <mxPoint x="365" y="370" as="targetPoint" />
            <mxPoint as="offset" />
          </mxGeometry>
        </mxCell>
        <mxCell id="dvXd4WphclNY3FS19eXK-122" value="Puntuar (2)" style="edgeLabel;html=1;align=center;verticalAlign=middle;resizable=0;points=[];" vertex="1" connectable="0" parent="dvXd4WphclNY3FS19eXK-121">
          <mxGeometry x="0.0048" relative="1" as="geometry">
            <mxPoint as="offset" />
          </mxGeometry>
        </mxCell>
        <mxCell id="dvXd4WphclNY3FS19eXK-123" value="While" style="shape=umlFrame;whiteSpace=wrap;html=1;pointerEvents=0;" vertex="1" parent="1">
          <mxGeometry x="40" y="410" width="850" height="200" as="geometry" />
        </mxCell>
        <mxCell id="dvXd4WphclNY3FS19eXK-124" value="Hay cartas () = true" style="text;html=1;align=center;verticalAlign=middle;resizable=0;points=[];autosize=1;strokeColor=none;fillColor=none;" vertex="1" parent="1">
          <mxGeometry x="95" y="410" width="130" height="30" as="geometry" />
        </mxCell>
        <mxCell id="dvXd4WphclNY3FS19eXK-125" value="" style="html=1;verticalAlign=bottom;endArrow=none;dashed=1;endSize=8;curved=0;rounded=0;endFill=0;" edge="1" parent="1">
          <mxGeometry relative="1" as="geometry">
            <mxPoint x="219.47" y="380" as="sourcePoint" />
            <mxPoint x="220" y="800" as="targetPoint" />
          </mxGeometry>
        </mxCell>
        <mxCell id="dvXd4WphclNY3FS19eXK-126" value="" style="endArrow=classic;html=1;rounded=0;" edge="1" parent="1" source="dvXd4WphclNY3FS19eXK-107" target="dvXd4WphclNY3FS19eXK-111">
          <mxGeometry width="50" height="50" relative="1" as="geometry">
            <mxPoint x="200" y="550" as="sourcePoint" />
            <mxPoint x="250" y="500" as="targetPoint" />
            <Array as="points">
              <mxPoint x="140" y="460" />
            </Array>
          </mxGeometry>
        </mxCell>
        <mxCell id="dvXd4WphclNY3FS19eXK-127" value="Jugar carta (1)" style="edgeLabel;html=1;align=center;verticalAlign=middle;resizable=0;points=[];" vertex="1" connectable="0" parent="dvXd4WphclNY3FS19eXK-126">
          <mxGeometry x="-0.1764" y="-1" relative="1" as="geometry">
            <mxPoint as="offset" />
          </mxGeometry>
        </mxCell>
        <mxCell id="dvXd4WphclNY3FS19eXK-128" value="" style="endArrow=classic;html=1;rounded=0;exitX=1.353;exitY=0.424;exitDx=0;exitDy=0;exitPerimeter=0;" edge="1" parent="1">
          <mxGeometry width="50" height="50" relative="1" as="geometry">
            <mxPoint x="74" y="499.79" as="sourcePoint" />
            <mxPoint x="420" y="499.79" as="targetPoint" />
          </mxGeometry>
        </mxCell>
        <mxCell id="dvXd4WphclNY3FS19eXK-129" value="Caer() / limpiar ()&amp;nbsp;" style="edgeLabel;html=1;align=center;verticalAlign=middle;resizable=0;points=[];" vertex="1" connectable="0" parent="dvXd4WphclNY3FS19eXK-128">
          <mxGeometry x="-0.1764" y="-1" relative="1" as="geometry">
            <mxPoint as="offset" />
          </mxGeometry>
        </mxCell>
        <mxCell id="dvXd4WphclNY3FS19eXK-130" value="" style="endArrow=classic;html=1;rounded=0;exitX=1.353;exitY=0.424;exitDx=0;exitDy=0;exitPerimeter=0;" edge="1" parent="1" target="dvXd4WphclNY3FS19eXK-132">
          <mxGeometry width="50" height="50" relative="1" as="geometry">
            <mxPoint x="430" y="530" as="sourcePoint" />
            <mxPoint x="776" y="530" as="targetPoint" />
          </mxGeometry>
        </mxCell>
        <mxCell id="dvXd4WphclNY3FS19eXK-131" value="Puntuar (2)" style="edgeLabel;html=1;align=center;verticalAlign=middle;resizable=0;points=[];" vertex="1" connectable="0" parent="dvXd4WphclNY3FS19eXK-130">
          <mxGeometry x="-0.1764" y="-1" relative="1" as="geometry">
            <mxPoint as="offset" />
          </mxGeometry>
        </mxCell>
        <mxCell id="dvXd4WphclNY3FS19eXK-132" value="" style="html=1;points=[[0,0,0,0,5],[0,1,0,0,-5],[1,0,0,0,5],[1,1,0,0,-5]];perimeter=orthogonalPerimeter;outlineConnect=0;targetShapes=umlLifeline;portConstraint=eastwest;newEdgeStyle={&quot;curved&quot;:0,&quot;rounded&quot;:0};" vertex="1" parent="1">
          <mxGeometry x="615" y="520" width="10" height="30" as="geometry" />
        </mxCell>
        <mxCell id="dvXd4WphclNY3FS19eXK-133" value="" style="html=1;verticalAlign=bottom;endArrow=none;dashed=1;endSize=8;curved=0;rounded=0;endFill=0;" edge="1" parent="1" source="dvXd4WphclNY3FS19eXK-113">
          <mxGeometry relative="1" as="geometry">
            <mxPoint x="619.7" y="370" as="sourcePoint" />
            <mxPoint x="620" y="520" as="targetPoint" />
          </mxGeometry>
        </mxCell>
        <mxCell id="dvXd4WphclNY3FS19eXK-134" value="" style="endArrow=classic;html=1;rounded=0;exitX=1.353;exitY=0.424;exitDx=0;exitDy=0;exitPerimeter=0;" edge="1" parent="1">
          <mxGeometry width="50" height="50" relative="1" as="geometry">
            <mxPoint x="74" y="560" as="sourcePoint" />
            <mxPoint x="420" y="560" as="targetPoint" />
          </mxGeometry>
        </mxCell>
        <mxCell id="dvXd4WphclNY3FS19eXK-135" value="Recoger ()" style="edgeLabel;html=1;align=center;verticalAlign=middle;resizable=0;points=[];" vertex="1" connectable="0" parent="dvXd4WphclNY3FS19eXK-134">
          <mxGeometry x="-0.1764" y="-1" relative="1" as="geometry">
            <mxPoint as="offset" />
          </mxGeometry>
        </mxCell>
        <mxCell id="dvXd4WphclNY3FS19eXK-136" value="" style="endArrow=classic;html=1;rounded=0;exitX=1.353;exitY=0.424;exitDx=0;exitDy=0;exitPerimeter=0;" edge="1" parent="1" target="dvXd4WphclNY3FS19eXK-115">
          <mxGeometry width="50" height="50" relative="1" as="geometry">
            <mxPoint x="430" y="580" as="sourcePoint" />
            <mxPoint x="615" y="580" as="targetPoint" />
          </mxGeometry>
        </mxCell>
        <mxCell id="dvXd4WphclNY3FS19eXK-137" value="Acumular ()" style="edgeLabel;html=1;align=center;verticalAlign=middle;resizable=0;points=[];" vertex="1" connectable="0" parent="dvXd4WphclNY3FS19eXK-136">
          <mxGeometry x="-0.1764" y="-1" relative="1" as="geometry">
            <mxPoint as="offset" />
          </mxGeometry>
        </mxCell>
        <mxCell id="dvXd4WphclNY3FS19eXK-138" value="Cartón" style="html=1;verticalAlign=bottom;endArrow=open;dashed=1;endSize=8;curved=0;rounded=0;" edge="1" parent="1" target="dvXd4WphclNY3FS19eXK-107">
          <mxGeometry relative="1" as="geometry">
            <mxPoint x="810" y="640.05" as="sourcePoint" />
            <mxPoint x="670" y="640" as="targetPoint" />
          </mxGeometry>
        </mxCell>
        <mxCell id="dvXd4WphclNY3FS19eXK-139" value="" style="html=1;points=[[0,0,0,0,5],[0,1,0,0,-5],[1,0,0,0,5],[1,1,0,0,-5]];perimeter=orthogonalPerimeter;outlineConnect=0;targetShapes=umlLifeline;portConstraint=eastwest;newEdgeStyle={&quot;curved&quot;:0,&quot;rounded&quot;:0};" vertex="1" parent="1">
          <mxGeometry x="615" y="680" width="10" height="50" as="geometry" />
        </mxCell>
        <mxCell id="dvXd4WphclNY3FS19eXK-140" value="" style="html=1;verticalAlign=bottom;endArrow=none;dashed=1;endSize=8;curved=0;rounded=0;endFill=0;" edge="1" parent="1" target="dvXd4WphclNY3FS19eXK-139">
          <mxGeometry relative="1" as="geometry">
            <mxPoint x="619.7" y="550" as="sourcePoint" />
            <mxPoint x="619.7" y="690" as="targetPoint" />
          </mxGeometry>
        </mxCell>
        <mxCell id="dvXd4WphclNY3FS19eXK-141" value="" style="endArrow=classic;html=1;rounded=0;exitX=1.353;exitY=0.424;exitDx=0;exitDy=0;exitPerimeter=0;" edge="1" parent="1" target="dvXd4WphclNY3FS19eXK-139">
          <mxGeometry width="50" height="50" relative="1" as="geometry">
            <mxPoint x="70" y="690" as="sourcePoint" />
            <mxPoint x="416" y="690" as="targetPoint" />
          </mxGeometry>
        </mxCell>
        <mxCell id="dvXd4WphclNY3FS19eXK-142" value="Puntuar (Puntos cartas acumuladas())" style="edgeLabel;html=1;align=center;verticalAlign=middle;resizable=0;points=[];" vertex="1" connectable="0" parent="dvXd4WphclNY3FS19eXK-141">
          <mxGeometry x="-0.1764" y="-1" relative="1" as="geometry">
            <mxPoint as="offset" />
          </mxGeometry>
        </mxCell>
        <mxCell id="dvXd4WphclNY3FS19eXK-143" value="Puntaje acumulado" style="html=1;verticalAlign=bottom;endArrow=open;dashed=1;endSize=8;curved=0;rounded=0;" edge="1" parent="1" source="dvXd4WphclNY3FS19eXK-139" target="dvXd4WphclNY3FS19eXK-107">
          <mxGeometry relative="1" as="geometry">
            <mxPoint x="610" y="710" as="sourcePoint" />
            <mxPoint x="-30" y="730" as="targetPoint" />
            <Array as="points">
              <mxPoint x="430" y="720" />
            </Array>
          </mxGeometry>
        </mxCell>
        <mxCell id="dvXd4WphclNY3FS19eXK-144" value="" style="html=1;verticalAlign=bottom;endArrow=none;dashed=1;endSize=8;curved=0;rounded=0;endFill=0;" edge="1" parent="1">
          <mxGeometry relative="1" as="geometry">
            <mxPoint x="819.57" y="650" as="sourcePoint" />
            <mxPoint x="820" y="800" as="targetPoint" />
          </mxGeometry>
        </mxCell>
        <mxCell id="dvXd4WphclNY3FS19eXK-145" value="" style="html=1;verticalAlign=bottom;endArrow=none;dashed=1;endSize=8;curved=0;rounded=0;endFill=0;" edge="1" parent="1">
          <mxGeometry relative="1" as="geometry">
            <mxPoint x="619.57" y="730" as="sourcePoint" />
            <mxPoint x="620" y="800" as="targetPoint" />
          </mxGeometry>
        </mxCell>
        <mxCell id="dvXd4WphclNY3FS19eXK-146" value="" style="html=1;verticalAlign=bottom;endArrow=none;dashed=1;endSize=8;curved=0;rounded=0;endFill=0;" edge="1" parent="1">
          <mxGeometry relative="1" as="geometry">
            <mxPoint x="424.00000000000006" y="590" as="sourcePoint" />
            <mxPoint x="424" y="800" as="targetPoint" />
          </mxGeometry>
        </mxCell>
        <mxCell id="dvXd4WphclNY3FS19eXK-147" value="While" style="shape=umlFrame;whiteSpace=wrap;html=1;pointerEvents=0;" vertex="1" parent="1">
          <mxGeometry x="20" y="170" width="890" height="590" as="geometry" />
        </mxCell>
        <mxCell id="dvXd4WphclNY3FS19eXK-148" value="Puntaje menor a 40" style="text;html=1;align=center;verticalAlign=middle;resizable=0;points=[];autosize=1;strokeColor=none;fillColor=none;" vertex="1" parent="1">
          <mxGeometry x="85" y="170" width="130" height="30" as="geometry" />
        </mxCell>
      </root>
    </mxGraphModel>
  </diagram>
</mxfile>
